<?xml version="1.0" encoding="UTF-8"?><svg id="Layer_2" xmlns="http://www.w3.org/2000/svg" xmlns:xlink="http://www.w3.org/1999/xlink" viewBox="0 0 149 117.23"><defs><style>.cls-1{fill:none;}.cls-2{clip-path:url(#clippath);}.cls-3,.cls-4{fill:#b2841c;}.cls-5{clip-path:url(#clippath-1);}.cls-6{clip-path:url(#clippath-4);}.cls-7{clip-path:url(#clippath-3);}.cls-8{clip-path:url(#clippath-2);}.cls-9{clip-path:url(#clippath-7);}.cls-10{clip-path:url(#clippath-8);}.cls-11{clip-path:url(#clippath-6);}.cls-12{clip-path:url(#clippath-5);}.cls-13{clip-path:url(#clippath-9);}.cls-4{fill-rule:evenodd;}</style><clipPath id="clippath"><rect class="cls-1" x="101.44" y="4.41" width="16.54" height="16.13"/></clipPath><clipPath id="clippath-1"><rect class="cls-1" x="44.77" width="32.29" height="45.67"/></clipPath><clipPath id="clippath-2"><rect class="cls-1" x="78.11" y=".14" width="21.24" height="46.36"/></clipPath><clipPath id="clippath-3"><rect class="cls-1" y="45.25" width="54.52" height="11.11"/></clipPath><clipPath id="clippath-4"><rect class="cls-1" x="15.08" y="49.33" width="45.04" height="5.31"/></clipPath><clipPath id="clippath-5"><rect class="cls-1" x="115.89" y="45.41" width="31.62" height="10.62"/></clipPath><clipPath id="clippath-6"><rect class="cls-1" x="108.44" y="49.48" width="40.56" height="8.94"/></clipPath><clipPath id="clippath-7"><rect class="cls-1" x="37.2" y="33.74" width="65.81" height="22.14"/></clipPath><clipPath id="clippath-8"><rect class="cls-1" x="87.41" y="27.47" width="24.64" height="29.21"/></clipPath><clipPath id="clippath-9"><rect class="cls-1" x="101.69" y="25.61" width="16.39" height="24.22"/></clipPath></defs><g id="Layer_1-2"><g class="cls-2"><polygon class="cls-4" points="103.83 9.35 103.8 6.77 106.56 6.79 106.53 4.94 107.83 6.26 109.81 4.41 111.65 6.12 112.86 4.77 113.03 6.77 115.65 6.77 115.62 9.4 117.32 9.32 116.11 10.75 117.98 12.6 116.34 14.23 117.52 15.6 115.57 15.58 115.68 18.27 112.96 18.23 112.95 20.1 111.66 18.82 109.81 20.54 107.99 18.86 106.62 20.06 106.58 18.31 103.85 18.23 103.88 15.61 101.93 15.58 103.22 14.31 101.44 12.62 103.21 10.74 101.99 9.42 103.83 9.35"/></g><g class="cls-5"><path class="cls-4" d="m44.77,42.2l2.33-18.39.83-.78.16,1.32,1.24-.99-.1-1.35.94-.69.13,1.32,1.25-.83.02-1.48.94-.9.17,1.57,1.37-.91.07-1.88,2.05-.97.08,4.67,5.34-4.44.31-5.4,1.97-1.57.07,2.33,1.77-1.21-.05-2.53,2.02-1.68.08,2.63,1.97-1.4.02-2.89,2.27-1.76.07,3.05,2.17-1.61-.07-3.1,2.83-2.33.04,45.67s-8.96-1.7-14.23-2.72c-5.08-.98-10.79-.49-12.4-.55-1.61-.07-5.66-.2-5.66-.2"/></g><g class="cls-8"><path class="cls-4" d="m99.36,25.66s-5.84,1.47-8.28,4.57c-2.44,3.11-1.92,5.35-1.92,5.35l2.31,2.54s1.33-2.25,3.12-.79c1.79,1.46,1.61,4.92-1.84,6.95-3.45,2.03-6.48,2.17-8.98,2.21-2.5.03-5.49-.29-5.49-.29l-.16-46.07,4.22,2.7.05,3.16,2.25,1.28.05-3,3.47,2.18.02,2.86,2.17,1.22-.02-2.67,3.35,2.13.1,2.66,2.09.96-.02-2.26,3.13,1.94.38,12.36Z"/></g><g class="cls-7"><path class="cls-4" d="m54.52,50.14s-12.31-2.76-19.75-2.05c-7.44.71-15.93,3.92-21.4,6.29-5.47,2.38-8.56,2.12-10.47,1.73C.99,55.73,0,54.45,0,54.45c0,0,4.54,2.89,11.26-1.22,6.72-4.11,14.35-8.61,24.49-7.9,10.14.71,13.37,2.23,15.24,2.91,1.87.67,3.55,1.96,3.52,1.91"/></g><g class="cls-6"><path class="cls-4" d="m60.11,53.74s-14.88-2.5-21.46-2.38c-6.58.13-13.76,1.35-17.78,2.25-4.02.9-5.79,1.03-5.79,1.03,11.2-4.96,27.22-7.88,42.67-2.2,1.73.63,2.36,1.3,2.36,1.3"/></g><g class="cls-12"><path class="cls-4" d="m118.39,45.41l-2.5,3.28s4.87.58,11.72,3.15c4.07,1.53,7.9,2.75,10.82,3.52,2,.53,3.89.87,5.33.57,3.55-.74,3.75-1.96,3.75-1.96,0,0-3.75,1.57-7.33.16-3.58-1.41-11.8-5.77-16.21-7.18-4.41-1.41-5.58-1.53-5.58-1.53"/></g><g class="cls-11"><path class="cls-4" d="m112.53,50.65c-.22.12-.45.24-.69.33-1.08.51-2.22.97-3.4,1.45,1.69.2,11.75,1.44,18.09,3.42,6.94,2.17,14.74,3.32,18.34,1.98,3.6-1.34,4.13-2.49,4.13-2.49-3.77,2.45-8.02,1.89-12.07.86-5.12-1.3-10.12-3.81-15.16-5.09-2.6-.66-6.15-1.42-7.17-1.64-.66.43-1.35.81-2.07,1.17"/></g><g class="cls-9"><path class="cls-4" d="m92.37,35.58s1.87-1.3,3.8-.07c1.93,1.23,2.34,4.39,1.51,6.29-3.07,7.1-13.79,6.78-20.33,6.28-2.62-.2-5.36-.59-8.11-1.26-7.98-1.97-15.39-3.31-20.52-3.38-5.13-.07-11.53.15-11.53.15,10.72.74,18.46,6.43,27.62,9.6,10.96,3.8,28.58,4.93,35.9-5.68,2.65-3.84,3.51-8.58-.22-11.99-2.47-2.26-5.19-1.87-6.33-1.45-1.14.42-1.79,1.52-1.79,1.52"/></g><g class="cls-10"><path class="cls-4" d="m87.42,56.64s11.29-1.52,15.05-7.99c5.9-10.15-.95-19.66-11.79-14.7,0,0,1.01-2.26,2.92-4.05,5.34-4.99,15.26-1.69,17.61,4.45,2.38,6.21-.49,13.69-6.57,17.1-.69.39-1.4.9-2.18,1.33-1.93,1.04-4.14,2.01-6.27,2.61-4.66,1.33-8.94,1.37-8.78,1.25"/></g><g class="cls-13"><path class="cls-4" d="m109.56,49.82s3.55-2.35,4.13-7.04c.58-4.69-.13-10.5-4.19-13.49-4.06-2.99-7.73-3.21-7.8-3.21-.04,0,1.17-.58,3.48-.45,9.78.54,14.79,7.99,12.26,17.51-.76,2.87-3.53,5.11-6.14,6.12-1.03.4-1.86.63-1.73.57"/></g><path class="cls-3" d="m125.77,95.82v17.29c0,.91.05,1.47.13,1.68.09.21.24.37.45.47.3.17.74.25,1.31.25,1.86,0,3.29-.62,4.27-1.86,1.34-1.68,2.01-4.28,2.01-7.81,0-2.84-.46-5.11-1.37-6.82-.73-1.33-1.66-2.23-2.8-2.71-.81-.34-2.14-.5-4-.49m-8.67,20.9v-.6h.76c.66,0,1.17-.1,1.52-.31.35-.2.61-.47.78-.83.1-.23.15-.92.15-2.06v-14.58c0-1.13-.06-1.84-.19-2.13-.12-.28-.37-.53-.74-.74-.37-.21-.88-.32-1.52-.32h-.76v-.61h10.17c2.72,0,4.9.36,6.56,1.08,2.02.88,3.56,2.21,4.6,4,1.05,1.79,1.57,3.81,1.57,6.06,0,1.56-.26,3-.77,4.31-.51,1.32-1.18,2.4-1.99,3.25-.82.86-1.76,1.55-2.83,2.06-1.07.51-2.37.91-3.91,1.2-.68.13-1.76.2-3.22.2h-10.17Zm-1.68-7.78l-.85,7.78h-20.18v-.6h.76c.66,0,1.19-.12,1.59-.35.29-.15.51-.41.68-.79.12-.26.18-.94.18-2.06v-14.58c0-1.13-.06-1.84-.18-2.13-.13-.28-.37-.53-.75-.74-.37-.21-.88-.32-1.52-.32h-.76v-.61h12.12v.61h-.99c-.66,0-1.19.11-1.6.34-.29.16-.52.41-.69.79-.12.26-.18.95-.18,2.06v14.12c0,1.13.07,1.86.2,2.16.14.31.39.55.79.7.28.1.96.14,2.02.14h1.89c1.21,0,2.21-.21,3.02-.62.8-.41,1.5-1.07,2.08-1.96.59-.89,1.14-2.21,1.67-3.96h.69Zm-37.33-13.19v9.71h.96c1.55,0,2.71-.13,3.48-.41.77-.28,1.38-.78,1.82-1.51.44-.73.66-1.67.66-2.83,0-1.69-.41-2.93-1.22-3.74-.81-.81-2.11-1.21-3.91-1.21h-1.79Zm0,10.87v6.21c0,1.2.07,1.95.22,2.26.15.31.42.56.8.75.38.18,1.09.28,2.13.28v.6h-11.63v-.6c1.05,0,1.76-.09,2.14-.29.37-.19.63-.44.79-.74.15-.31.22-1.05.22-2.25v-14.38c0-1.2-.07-1.95-.22-2.26-.15-.31-.42-.56-.8-.74-.38-.19-1.09-.28-2.13-.28v-.61h10.56c2.75,0,4.76.19,6.03.56,1.27.37,2.31,1.05,3.12,2.05.8.99,1.21,2.16,1.21,3.5,0,1.63-.61,2.98-1.81,4.06-.77.68-1.85,1.18-3.23,1.52l5.46,7.5c.72.97,1.22,1.57,1.52,1.81.46.34.99.52,1.6.56v.6h-7.16l-7.32-10.1h-1.49Zm-22.35-11.32c-2.08,0-3.66,1.04-4.75,3.11-.88,1.7-1.32,4.14-1.32,7.32,0,3.78.68,6.58,2.04,8.38.95,1.27,2.28,1.9,3.99,1.9,1.15,0,2.11-.27,2.88-.81.98-.7,1.74-1.81,2.29-3.35.55-1.53.82-3.53.82-5.99,0-2.93-.28-5.13-.84-6.58-.56-1.46-1.27-2.48-2.14-3.08-.86-.6-1.86-.9-2.99-.9m-.21-1.04c3.62-.13,6.56.9,8.83,3.08,2.26,2.19,3.39,4.93,3.39,8.22,0,2.81-.84,5.28-2.53,7.42-2.24,2.83-5.39,4.25-9.47,4.25s-7.25-1.35-9.48-4.05c-1.76-2.14-2.65-4.67-2.65-7.6,0-3.29,1.15-6.04,3.44-8.23,2.3-2.2,5.12-3.23,8.47-3.1m-13.56.31v.61c-.42.03-.78.14-1.07.34-.29.2-.55.5-.77.9-.07.13-.42.98-1.06,2.53l-7.12,18.29h-.65l-5.63-14.29-6.2,14.29h-.62l-7.47-18.09c-.76-1.82-1.29-2.92-1.6-3.3-.3-.38-.81-.61-1.52-.67v-.61h9.85v.61c-.79.02-1.32.14-1.58.35-.26.21-.39.47-.39.79,0,.41.27,1.29.82,2.63l4.46,10.75,3.57-8.4-.94-2.35c-.51-1.28-.91-2.14-1.2-2.57-.27-.43-.59-.74-.96-.92-.36-.19-.9-.28-1.6-.28v-.61h11.01v.61c-.77.01-1.32.07-1.66.18-.23.08-.42.21-.56.38-.13.18-.2.38-.2.61,0,.25.25,1.02.76,2.3l4.14,10.49,3.7-9.5c.39-.98.63-1.65.72-2.01.09-.36.14-.69.14-1,0-.45-.16-.8-.47-1.05-.31-.25-.92-.39-1.8-.41v-.61h5.9Zm88.07-16.25l-3.38-7.63-3.49,7.63h6.87Zm.57,1.21h-8.03l-.96,2.16c-.31.72-.47,1.31-.47,1.78,0,.62.26,1.08.77,1.37.3.18,1.04.31,2.23.4v.6h-7.56v-.6c.81-.12,1.49-.45,2.01-.99.53-.54,1.18-1.65,1.94-3.34l8.13-17.68h.32l8.19,18.17c.78,1.72,1.42,2.81,1.93,3.25.38.34.92.54,1.61.59v.6h-10.99v-.6h.45c.88,0,1.5-.12,1.86-.36.25-.17.37-.42.37-.75,0-.2-.03-.4-.1-.6-.02-.1-.19-.51-.5-1.23l-1.21-2.76Zm-15.07,5.71v.6h-11.88v-.6h.76c.66,0,1.19-.12,1.59-.35.29-.15.52-.41.67-.79.13-.26.19-.94.19-2.06v-14.58c0-1.13-.06-1.84-.19-2.13-.12-.28-.37-.53-.74-.74-.37-.21-.88-.32-1.52-.32h-.76v-.61h11.88v.61h-.75c-.66,0-1.19.11-1.59.34-.29.16-.52.41-.69.79-.12.26-.18.95-.18,2.06v14.58c0,1.13.06,1.84.19,2.13.13.28.38.53.76.74.38.22.88.32,1.52.32h.75Zm-24.26-20.28v9.58c.37.02.65.03.84.03,1.36,0,2.41-.4,3.15-1.19.74-.79,1.11-2.01,1.11-3.67s-.37-2.84-1.11-3.61c-.74-.76-1.84-1.14-3.3-1.14h-.69Zm0,10.8v6.12c0,1.19.07,1.95.23,2.25.15.31.42.56.8.74.39.18,1.09.28,2.12.28v.6h-11.55v-.6c1.05,0,1.76-.09,2.14-.29.37-.19.63-.43.79-.74.15-.31.22-1.05.22-2.25v-14.33c0-1.19-.07-1.95-.22-2.26-.15-.31-.42-.56-.8-.74-.38-.19-1.09-.28-2.13-.28v-.61h9.91c3.26,0,5.6.57,7.02,1.69,1.42,1.13,2.13,2.54,2.13,4.24,0,1.43-.46,2.66-1.37,3.68-.92,1.02-2.18,1.71-3.79,2.08-1.08.26-2.92.39-5.5.39m-22.5-11.34c-2.08,0-3.66,1.04-4.75,3.11-.88,1.7-1.32,4.14-1.32,7.32,0,3.78.68,6.58,2.04,8.38.95,1.27,2.28,1.9,3.99,1.9,1.15,0,2.11-.27,2.88-.81.98-.7,1.74-1.81,2.29-3.35.55-1.53.82-3.53.82-5.99,0-2.93-.28-5.13-.84-6.58-.56-1.46-1.27-2.48-2.14-3.08-.86-.6-1.86-.9-2.99-.9m-.21-1.04c3.62-.13,6.56.9,8.83,3.08,2.26,2.19,3.39,4.93,3.39,8.22,0,2.81-.84,5.28-2.53,7.42-2.24,2.83-5.39,4.25-9.47,4.25s-7.25-1.35-9.48-4.06c-1.76-2.14-2.65-4.67-2.65-7.6,0-3.29,1.15-6.04,3.44-8.23,2.3-2.2,5.12-3.23,8.47-3.1m-13.88.31v6h-.6c-.36-1.39-.76-2.38-1.19-2.98-.43-.61-1.04-1.09-1.8-1.44-.42-.2-1.17-.3-2.23-.3h-1.69v17.09c0,1.13.06,1.84.19,2.13.13.28.38.53.75.74.38.22.89.32,1.53.32h.76v.6h-11.9v-.6h.76c.66,0,1.19-.12,1.59-.35.29-.15.52-.41.69-.79.13-.26.19-.94.19-2.06v-17.09h-1.65c-1.53,0-2.64.31-3.33.95-.97.88-1.58,2.14-1.84,3.78h-.63v-6h20.41Zm-45.63,0h11.73v.61h-.58c-.88,0-1.49.09-1.82.27-.33.18-.57.43-.7.74-.14.32-.21,1.11-.21,2.37v10.85c0,1.99.15,3.3.46,3.94.31.64.81,1.17,1.52,1.6.7.42,1.59.64,2.67.64,1.23,0,2.28-.27,3.14-.81.87-.54,1.52-1.28,1.94-2.23.43-.95.65-2.6.65-4.95v-9.04c0-.99-.11-1.7-.32-2.12-.21-.42-.48-.72-.8-.88-.5-.25-1.21-.37-2.13-.37v-.61h7.86v.61h-.47c-.63,0-1.17.12-1.59.37-.42.25-.73.62-.92,1.13-.14.35-.22.98-.22,1.88v8.42c0,2.6-.18,4.48-.53,5.64-.35,1.15-1.21,2.21-2.57,3.19-1.36.97-3.23,1.46-5.58,1.46-1.96,0-3.48-.26-4.56-.77-1.46-.7-2.49-1.59-3.1-2.68-.6-1.09-.9-2.55-.9-4.4v-10.85c0-1.27-.07-2.06-.22-2.38-.14-.31-.39-.56-.75-.74-.35-.19-1.01-.27-1.97-.26v-.61Z"/><rect class="cls-1" x="8.26" y="63.21" width="132.48" height="54.02"/></g></svg>